<svg xmlns="http://www.w3.org/2000/svg" viewBox="0 0 500 500"><title>Artboard 1</title><path d="M250,474.25A224.25,224.25,0,0,1,91.43,91.43,224.25,224.25,0,0,1,408.57,408.57,222.81,222.81,0,0,1,250,474.25Z" fill="#b25250"/><path d="M250,40.75a209.32,209.32,0,0,1,81.44,402.07A209.31,209.31,0,0,1,168.56,57.18,208,208,0,0,1,250,40.75m0-30C117.87,10.75,10.75,117.87,10.75,250S117.87,489.25,250,489.25,489.25,382.13,489.25,250,382.13,10.75,250,10.75Z" fill="#19190d"/><line x1="121" y1="121" x2="379" y2="379" fill="none" stroke="#19190d" stroke-miterlimit="10" stroke-width="30"/><line x1="121" y1="121" x2="379" y2="379"/><line x1="379" y1="121" x2="121" y2="379" fill="#19190d" stroke="#19190d" stroke-miterlimit="10" stroke-width="30"/></svg>